<svg width="42" height="42" viewBox="0 0 42 42" fill="none" xmlns="http://www.w3.org/2000/svg">
  <rect x="0.5" y="0.5" width="41" height="41" rx="5.5" fill="url(#paint0_linear)" stroke="#CCCCCC"/>
  <path d="M21 6C16.03 6 12 10.03 12 15C12 17.22 12.86 19.27 14.31 20.72L12.4 28.8C12.29 29.36 12.79 29.88 13.36 29.79L17.63 29.14C18.21 29.06 18.63 28.61 18.63 28.03V25.53C19.28 25.77 19.99 26 20.75 26C21.51 26 22.22 25.77 22.87 25.53V28.03C22.87 28.61 23.29 29.06 23.87 29.14L28.14 29.79C28.71 29.88 29.21 29.36 29.1 28.8L27.19 20.72C28.64 19.27 29.5 17.22 29.5 15C29.5 10.03 25.47 6 21 6ZM21 14C20.17 14 19.5 14.67 19.5 15.5C19.5 16.33 20.17 17 21 17C21.83 17 22.5 16.33 22.5 15.5C22.5 14.67 21.83 14 21 14ZM21 12C21.83 12 22.5 11.33 22.5 10.5C22.5 9.67 21.83 9 21 9C20.17 9 19.5 9.67 19.5 10.5C19.5 11.33 20.17 12 21 12ZM23 20C22.17 20 21.5 20.67 21.5 21.5C21.5 22.33 22.17 23 23 23C23.83 23 24.5 22.33 24.5 21.5C24.5 20.67 23.83 20 23 20ZM19 20C18.17 20 17.5 20.67 17.5 21.5C17.5 22.33 18.17 23 19 23C19.83 23 20.5 22.33 20.5 21.5C20.5 20.67 19.83 20 19 20ZM21 18C20.17 18 19.5 18.67 19.5 19.5C19.5 20.33 20.17 21 21 21C21.83 21 22.5 20.33 22.5 19.5C22.5 18.67 21.83 18 21 18Z" fill="#FFFFFF"/>
  <defs>
    <linearGradient id="paint0_linear" x1="0" y1="0" x2="42" y2="42" gradientUnits="userSpaceOnUse">
      <stop offset="0.259336" stop-color="#FFDB6E"/>
      <stop offset="1" stop-color="#FFBC5E"/>
    </linearGradient>
  </defs>
</svg>
